<?xml version="1.0" encoding="UTF-8" standalone="no"?>
<svg
   version="1.1"
   id="Layer_1"
   x="0px"
   y="0px"
   width="215"
   viewBox="0 0 215 215"
   enable-background="new 0 0 432 400"
   xml:space="preserve"
   height="215"
   xmlns="http://www.w3.org/2000/svg"
   xmlns:svg="http://www.w3.org/2000/svg"><defs
   id="defs11" />


<g
   id="g174"
   transform="translate(4.2354866,5.6994322)"><path
     fill="#000000"
     opacity="1"
     stroke="none"
     d="m 197.19636,203.60112 c -63.48204,-0.0142 -126.471264,-0.0272 -189.4604845,-0.0427 -7.66518999,-0.002 -7.64256999,-0.008 -7.64130999,-7.73242 0.007,-43.6592 0.0671,-87.31864 -0.0943999962,-130.977242 C -0.01673449,60.289048 1.3450755,57.620168 5.3653255,55.325458 36.469756,37.571428 67.477426,19.646918 98.428936,1.6272576 c 3.756534,-2.18701 6.596244,-2.18126 10.444444,0.0882 30.84886,18.1928004 61.81371,36.1904604 92.85665,54.0504004 3.53051,2.03122 4.81729,4.27499 4.79879,8.27313 -0.19589,42.323252 -0.22473,84.647282 -0.29885,126.971092 -0.002,1.3331 -0.0153,2.66656 0.008,3.99926 0.15152,8.5719 0.15442,8.57184 -9.0419,8.5918 M 62.385016,57.050658 c -6.78455,3.9063 -13.49877,7.94275 -20.38401,11.66263 -3.32034,1.79385 -4.65077,4.0236 -4.63681,7.90765 0.13779,38.324472 0.14357,76.649862 -0.002,114.974292 -0.0168,4.43457 1.44146,5.66309 5.76594,5.65158 50.15541,-0.1333 100.311514,-0.16601 150.466654,0.007 5.10315,0.0176 6.46322,-1.48361 6.43951,-6.50723 -0.18982,-40.15701 -0.19376,-80.31582 0.0189,-120.472642 0.025,-4.71298 -1.70618,-7.22951 -5.50558,-9.4976 -21.45447,-12.80762 -42.83507,-25.74039 -64.14495,-38.78717 -2.87591,-1.76075 -4.92796,-1.46664 -7.69711,0.1547 -19.8362,11.61411 -39.774674,23.05353 -60.320664,34.9072 z"
     id="path2" /><path
     fill="#000000"
     opacity="1"
     stroke="none"
     d="m 166.11472,157.51012 c 4.54236,5.50317 8.85486,10.73471 13.22669,16.03821 -6.50174,3.75607 -10.12977,3.00497 -13.8555,-2.33802 -4.76358,-6.83142 -9.6438,-13.58255 -14.33185,-20.46496 -1.70053,-2.49651 -3.74491,-3.90671 -6.69319,-2.98059 -2.93322,0.92138 -1.76514,3.61885 -1.81795,5.58345 -0.15218,5.66047 -0.21478,11.33271 -0.0157,16.98991 0.12963,3.68421 -1.63585,4.44598 -4.86009,4.45273 -3.35519,0.007 -4.82967,-1.13904 -4.81071,-4.63284 0.0904,-16.6595 0.0473,-33.31978 0.0351,-49.97977 -0.002,-2.21114 0.39117,-4.09076 3.15937,-4.0603 7.48343,0.0823 15.03354,-0.87644 22.43448,0.48654 9.28159,1.70933 14.29136,6.79539 14.61206,13.97729 0.29523,6.61031 -4.1438,11.87786 -12.55865,14.89862 -0.75861,0.27233 -1.52268,0.52948 -2.6442,0.91855 1.55967,4.6097 5.54572,7.15554 8.12015,11.11118 m -4.34668,-20.33315 c 2.19602,-5.12997 1.40643,-9.85872 -2.42227,-13.80787 -4.03967,-4.16671 -9.16829,-3.03014 -14.09586,-2.16867 -1.90913,0.33374 -2.67057,1.69894 -2.65109,3.63871 0.0501,4.9874 0.0123,9.97565 0.0179,14.96355 0.002,1.59547 0.34946,2.83504 2.20303,3.3886 5.3191,1.58859 12.93526,-0.79287 16.94829,-6.01432 z"
     id="path4" /><path
     fill="#000000"
     opacity="1"
     stroke="none"
     d="m 107.52234,123.83614 c -3.94271,-1.38578 -7.49121,-2.74567 -11.271604,-3.52149 -8.30249,-1.70388 -15.83177,0.96062 -20.4276,7.9915 -6.66139,10.19089 -6.96576,21.09517 -1.82187,31.83434 5.10454,10.65701 19.41396,14.76923 31.801564,9.83319 1.65178,-0.6582 3.13648,-1.87375 5.19756,-1.74487 0.97255,2.63778 0.80867,4.77539 -2.2094,5.52917 -12.794144,3.19553 -25.498094,3.88843 -36.976764,-3.93637 -16.16325,-11.01819 -15.18086,-37.7756 1.58353,-48.61169 10.27777,-6.6433 21.41981,-7.70304 33.059444,-4.65554 4.45025,1.16518 4.80149,3.35276 1.06514,7.28176 z"
     id="path6" /></g>
</svg>
