<?xml version="1.0" encoding="UTF-8" standalone="no"?>
<svg
  version="1.1"
  id="Layer_1"
  x="0px"
  y="0px"
  width="325"
  viewBox="0 0 325 195"
  enable-background="new 0 0 576 384"
  xml:space="preserve"
  sodipodi:docname="CR (1)_adobe_express.svg"
  inkscape:version="1.2.2 (b0a84865, 2022-12-01)"
  height="195"
  xmlns:inkscape="http://www.inkscape.org/namespaces/inkscape"
  xmlns:sodipodi="http://sodipodi.sourceforge.net/DTD/sodipodi-0.dtd"
  xmlns="http://www.w3.org/2000/svg"
  xmlns:svg="http://www.w3.org/2000/svg"
>
  <defs id="defs91" />
  <sodipodi:namedview
    id="namedview89"
    pagecolor="#ffffff"
    bordercolor="#666666"
    borderopacity="1.0"
  />

  <path
    style="fill: #000000; stroke-width: 0.267698"
    d="m 3.1796676,187.65737 c 0,-4.1047 0.0223,-4.28317 0.53539,-4.28317 0.48467,0 0.5354,0.17847 0.5354,1.88358 v 1.88358 l 2.61005,-0.0766 2.61005,-0.0766 0.0792,-1.80696 c 0.0598,-1.36621 0.17412,-1.80696 0.4684704,-1.80696 0.3244,0 0.38931,0.71418 0.38931,4.28317 0,3.57152 -0.0648,4.28317 -0.38981,4.28317 -0.2982204,0 -0.4083104,-0.45607 -0.4684804,-1.94081 l -0.0786,-1.94081 -2.61005,-0.0766 -2.61005,-0.0766 v 2.01743 c 0,1.83896 -0.0474,2.01743 -0.5354,2.01743 -0.51309,0 -0.53539,-0.17847 -0.53539,-4.28317 z m 19.6154104,3.72282 c -4.03233,-1.99597 -2.43323,-8.01906 2.12438,-8.00159 2.44612,0.009 4.28869,1.84599 4.28869,4.27481 0,1.7134 -0.79535,3.00533 -2.29798,3.73274 -1.45443,0.70408 -2.68425,0.7023 -4.11509,-0.006 z m 3.56077,-0.75006 c 3.26969,-1.48504 2.07244,-6.45284 -1.55515,-6.45284 -1.57322,0 -3.41758,1.85401 -3.41758,3.43545 0,1.21934 0.84149,2.49692 1.98743,3.01739 0.60011,0.27255 1.2718,0.49556 1.49265,0.49556 0.22085,0 0.89254,-0.22301 1.49265,-0.49556 z m 12.96304,-2.97276 c 0,-3.60025 0.0631,-4.28317 0.39562,-4.28317 0.22104,0 1.19559,1.35899 2.20851,3.07972 2.08191,3.53672 1.6778,3.58329 3.9869,-0.45951 0.82311,-1.44112 1.66452,-2.62021 1.86979,-2.62021 0.30361,0 0.37322,0.79885 0.37322,4.28317 0,3.6288 -0.0614,4.28317 -0.40155,4.28317 -0.33365,0 -0.40154,-0.52053 -0.40154,-3.07853 0,-1.69319 -0.0941,-3.07853 -0.20899,-3.07853 -0.11494,0 -0.86784,1.1435 -1.67311,2.5411 -0.80527,1.3976 -1.54894,2.54201 -1.6526,2.54313 -0.10367,0.001 -0.88668,-1.16869 -1.74004,-2.59956 l -1.55156,-2.6016 -0.0754,3.13699 c -0.0701,2.91613 -0.11251,3.137 -0.60232,3.137 -0.50211,0 -0.5269,-0.20149 -0.5269,-4.28317 z m 19.54196,0 v -4.28317 h 2.94468 c 2.43903,0 2.94468,0.069 2.94468,0.40155 0,0.32718 -0.44616,0.40154 -2.40928,0.40154 h -2.40928 v 1.47234 1.47234 h 2.14158 c 1.72516,0 2.14158,0.0781 2.14158,0.40155 0,0.32347 -0.41642,0.40155 -2.14158,0.40155 h -2.14158 v 1.47234 1.47234 h 2.40928 c 2.23081,0 2.40928,0.0396 2.40928,0.53539 0,0.50295 -0.17847,0.5354 -2.94468,0.5354 h -2.94468 z m 16.59728,3.90448 c -0.51532,-0.18587 -0.97927,-0.55568 -1.03101,-0.82179 -0.074,-0.38081 0.0114,-0.43856 0.40154,-0.27121 0.27259,0.11694 1.0769,0.34086 1.78736,0.4976 1.52503,0.33645 2.66677,-0.12015 2.81121,-1.12425 0.12881,-0.8955 -0.31209,-1.26154 -2.13594,-1.77329 -2.45112,-0.68775 -3.40774,-1.91469 -2.62832,-3.37105 0.63768,-1.1915 2.87187,-1.6486 4.73466,-0.96867 0.63142,0.23047 0.79967,0.41312 0.63106,0.68509 -0.18457,0.29772 -0.40175,0.31092 -1.10168,0.0669 -1.83081,-0.63822 -3.46888,-0.0838 -3.46888,1.17419 0,0.73481 0.48934,1.05738 2.49724,1.64621 1.63767,0.48025 2.58903,1.27398 2.58903,2.16007 0,2.00502 -2.4945,3.03503 -5.08627,2.10018 z m 25.524892,-1.02673 c 3.01752,-6.8157 3.21286,-7.18593 3.7494,-7.10611 0.40003,0.0595 0.98307,1.0663 2.35964,4.07457 1.00558,2.19754 1.82833,4.09485 1.82833,4.21624 0,0.631 -0.86228,0.0834 -1.33849,-0.85007 l -0.54628,-1.0708 h -2.36318 -2.36319 l -0.48286,1.0708 c -0.30887,0.68496 -0.65991,1.07079 -0.97422,1.07079 -0.46007,0 -0.45174,-0.0895 0.13085,-1.40542 z m 5.43227,-2.15229 c -0.0846,-0.33717 -0.51003,-1.39123 -0.94535,-2.34236 l -0.79149,-1.72933 -0.40038,0.93695 c -0.22021,0.51532 -0.65111,1.51913 -0.95756,2.2307 -0.30644,0.71157 -0.55718,1.344 -0.55718,1.40541 0,0.0614 0.85631,0.11166 1.90291,0.11166 1.84956,0 1.89859,-0.0172 1.74905,-0.61303 z m 12.343,3.12845 c -0.55212,-0.2371 -1.00386,-0.59891 -1.00386,-0.80401 0,-0.47831 0.23928,-0.46933 1.49699,0.0562 1.75092,0.73158 3.85697,0.11434 3.85697,-1.13039 0,-0.56999 -0.78299,-1.14739 -1.95286,-1.44011 -1.87974,-0.47033 -2.8626,-1.02795 -3.15158,-1.78801 -0.80504,-2.11743 2.00052,-3.71164 4.80896,-2.73261 0.89887,0.31334 1.00295,0.96253 0.13282,0.82845 -2.45164,-0.37778 -2.80087,-0.37271 -3.44602,0.05 -0.75501,0.4947 -0.87246,1.26418 -0.28293,1.85371 0.21536,0.21536 1.23646,0.64819 2.26911,0.96185 1.98812,0.60387 2.42559,1.03102 2.42559,2.36834 0,1.78927 -2.84206,2.76909 -5.15319,1.77659 z m 15.52649,0 c -0.55213,-0.2371 -1.00387,-0.59891 -1.00387,-0.80401 0,-0.47831 0.23929,-0.46933 1.497,0.0562 1.75091,0.73158 3.85696,0.11434 3.85696,-1.13039 0,-0.56999 -0.78298,-1.14739 -1.95285,-1.44011 -1.87974,-0.47033 -2.8626,-1.02795 -3.15158,-1.78801 -0.80504,-2.11743 2.00052,-3.71164 4.80896,-2.73261 0.89887,0.31334 1.00294,0.96253 0.13281,0.82845 -2.45163,-0.37778 -2.80087,-0.37271 -3.44601,0.05 -0.75502,0.4947 -0.87246,1.26418 -0.28293,1.85371 0.21536,0.21536 1.23645,0.64819 2.26911,0.96185 1.98811,0.60387 2.42559,1.03102 2.42559,2.36834 0,1.78927 -2.84206,2.76909 -5.15319,1.77659 z m 17.05248,0.0527 c -0.96738,-0.42136 -2.19485,-1.8052 -2.42911,-2.73854 -0.26089,-1.03948 0.0438,-2.90904 0.59895,-3.67555 0.27772,-0.38342 0.99472,-0.9398 1.59333,-1.23641 2.78105,-1.37799 5.98324,0.15444 6.42087,3.07275 0.48974,3.26585 -3.09823,5.92185 -6.18404,4.57775 z m 3.8224,-1.12459 c 0.95271,-0.60314 1.48908,-1.90386 1.33795,-3.24461 -0.41118,-3.64803 -5.61709,-3.98076 -6.59976,-0.42182 -0.82298,2.98057 2.58937,5.3583 5.26181,3.66643 z m 14.10622,0.96056 c -1.54756,-0.76604 -2.35413,-2.276 -2.20115,-4.12071 0.14164,-1.70807 0.77414,-2.6401 2.30604,-3.39814 0.85398,-0.42257 1.4843,-0.54004 2.41696,-0.45042 1.52939,0.14695 2.86333,0.919 2.44946,1.41768 -0.22032,0.26548 -0.48506,0.23041 -1.26592,-0.1677 -1.19452,-0.609 -1.67082,-0.62509 -2.92996,-0.099 -1.1223,0.46893 -1.58227,0.99388 -1.93264,2.20567 -0.7933,2.74374 2.2071,5.15494 4.8113,3.86649 0.82927,-0.41029 1.10179,-0.44706 1.32452,-0.17869 0.21186,0.25528 -0.004,0.4757 -0.88414,0.90164 -1.46203,0.70775 -2.69736,0.71475 -4.09447,0.0232 z m 15.14536,-3.74259 c 0,-3.6288 0.0614,-4.28317 0.40155,-4.28317 0.3402,0 0.40155,0.65437 0.40155,4.28317 0,3.6288 -0.0613,4.28317 -0.40155,4.28317 -0.3402,0 -0.40155,-0.65437 -0.40155,-4.28317 z m 10.56375,3.78029 c 0.0878,-0.27658 0.92275,-2.17389 1.85548,-4.21624 1.2596,-2.75812 1.83111,-3.73382 2.22161,-3.79287 0.44089,-0.0667 0.82135,0.58155 2.35682,4.01547 1.00708,2.25223 1.87819,4.18532 1.93578,4.29574 0.0576,0.11043 -0.12502,0.20078 -0.40582,0.20078 -0.33668,0 -0.67496,-0.36464 -0.99339,-1.07079 l -0.48286,-1.0708 h -2.36319 -2.36318 l -0.54628,1.0708 c -0.55657,1.09096 -1.52459,1.54345 -1.21497,0.56791 z m 6.03353,-2.54296 c 0,-0.108 -0.40391,-1.08631 -1.3398,-3.24507 l -0.58028,-1.33849 -0.78901,1.72933 c -1.3834,3.03213 -1.40433,2.95539 0.80619,2.95539 1.0466,0 1.9029,-0.0455 1.9029,-0.10116 z m 13.59303,-0.76886 -0.0743,-3.8147 -1.40541,-0.0809 c -1.01099,-0.0582 -1.40542,-0.18968 -1.40542,-0.46847 0,-0.31761 0.60396,-0.38756 3.34623,-0.38756 2.74227,0 3.34623,0.07 3.34623,0.38756 0,0.27879 -0.39443,0.41026 -1.40542,0.46847 l -1.40541,0.0809 -0.0743,3.8147 c -0.0606,3.11368 -0.14536,3.8147 -0.46112,3.8147 -0.31576,0 -0.40049,-0.70102 -0.46112,-3.8147 z m 13.17678,-0.46847 c 0,-4.1047 0.0223,-4.28317 0.53539,-4.28317 0.51309,0 0.5354,0.17847 0.5354,4.28317 0,4.1047 -0.0223,4.28317 -0.5354,4.28317 -0.51308,0 -0.53539,-0.17847 -0.53539,-4.28317 z m 13.45837,3.72282 c -4.03233,-1.99597 -2.43323,-8.01906 2.12438,-8.00159 2.44611,0.009 4.28868,1.84599 4.28868,4.27481 0,1.7134 -0.79535,3.00533 -2.29797,3.73274 -1.45444,0.70408 -2.68425,0.7023 -4.11509,-0.006 z m 3.56076,-0.75006 c 3.2697,-1.48504 2.07245,-6.45284 -1.55515,-6.45284 -1.57321,0 -3.41757,1.85401 -3.41757,3.43545 0,1.21934 0.84149,2.49692 1.98743,3.01739 0.6001,0.27255 1.2718,0.49556 1.49265,0.49556 0.22085,0 0.89254,-0.22301 1.49264,-0.49556 z m 12.96305,-2.97276 c 0,-3.59621 0.0633,-4.28317 0.3948,-4.28317 0.21713,0 1.57235,1.46745 3.01161,3.26101 l 2.6168,3.261 0.0752,-3.261 c 0.07,-3.04011 0.11088,-3.26101 0.60232,-3.26101 0.50244,0 0.52715,0.20078 0.52715,4.28317 0,3.56676 -0.065,4.28317 -0.38889,4.28317 -0.21386,0 -1.56908,-1.45781 -3.0116,-3.23957 l -2.62272,-3.23958 -0.0752,3.23958 c -0.07,3.01878 -0.11109,3.23957 -0.60232,3.23957 -0.50244,0 -0.52715,-0.20078 -0.52715,-4.28317 z m 28.91139,0 c 0,-4.1047 0.0222,-4.28317 0.5354,-4.28317 0.51309,0 0.53539,0.17847 0.53539,4.28317 0,4.1047 -0.0222,4.28317 -0.53539,4.28317 -0.5131,0 -0.5354,-0.17847 -0.5354,-4.28317 z m 11.77872,0 c 0,-3.29627 0.0788,-4.28317 0.34182,-4.28317 0.18803,0 1.54325,1.47569 3.0116,3.2793 l 2.66978,3.2793 0.0752,-3.2793 c 0.0701,-3.0583 0.1107,-3.2793 0.60232,-3.2793 0.50245,0 0.52715,0.20078 0.52715,4.28317 0,3.90382 -0.0415,4.28245 -0.46847,4.2751 -0.27294,-0.005 -1.52987,-1.34368 -3.0116,-3.20824 -1.39872,-1.7601 -2.63348,-3.20204 -2.74391,-3.20432 -0.11042,-0.002 -0.20077,1.44144 -0.20077,3.20825 0,2.67698 -0.0669,3.21238 -0.40155,3.21238 -0.34019,0 -0.40154,-0.65437 -0.40154,-4.28317 z m 19.38768,3.74259 c -1.54756,-0.76604 -2.35414,-2.276 -2.20115,-4.12071 0.14164,-1.70807 0.77416,-2.6401 2.30603,-3.39814 0.85399,-0.42257 1.48431,-0.54004 2.41697,-0.45042 1.52939,0.14695 2.86332,0.919 2.44946,1.41768 -0.22031,0.26548 -0.48507,0.23041 -1.26591,-0.1677 -1.19453,-0.609 -1.67081,-0.62509 -2.92996,-0.099 -1.1223,0.46893 -1.58228,0.99388 -1.93265,2.20567 -0.79329,2.74374 2.2071,5.15494 4.81132,3.86649 0.82924,-0.41029 1.10176,-0.44706 1.32449,-0.17869 0.21188,0.25528 -0.004,0.4757 -0.88413,0.90164 -1.46203,0.70775 -2.69735,0.71475 -4.09447,0.0232 z M 2.1751976,111.19975 2.2426976,52.140425 40.389668,30.071155 c 20.98083,-12.1381 40.08854,-23.1926601 42.46157,-24.5656801 l 4.31459,-2.4964 10.6765,6.17832 C 103.7144,12.585475 122.85405,23.635375 140.37489,33.742725 l 31.85607,18.377 v 18.71316 c 0,18.53468 -0.005,18.71315 -0.53539,18.71315 -0.52888,0 -0.53703,-0.22308 -0.66925,-18.30565 l -0.13385,-18.30565 -29.84833,-17.25166 c -16.41659,-9.48842 -30.2292,-17.44043 -30.69471,-17.67112 l -0.84636,-0.41946 -38.839872,22.4222 -38.83987,22.42219 v 53.238955 53.23897 l 18.40424,0.0688 c 18.20285,0.068 18.40424,0.0746 18.40424,0.60416 0,0.53216 -0.20112,0.53581 -33.26208,0.60337 l -33.2620704,0.068 z m 89.0366204,39.71605 -3.06014,-4.35009 -1.12666,-0.0823 -1.12666,-0.0823 v 4.29857 4.29856 h -1.20464 -1.20465 v -8.70019 -8.70019 l 3.68085,0.002 c 4.20421,0.002 5.32949,0.23497 6.62635,1.37362 1.52824,1.34182 1.76995,3.45631 0.5884,5.14755 -0.53722,0.76897 -2.85588,2.03615 -3.73467,2.04106 -0.25766,0.001 -0.46619,0.093 -0.4634,0.20339 0.003,0.11042 1.56367,2.06797 3.4686,4.35009 l 3.46352,4.14932 -0.99239,0.18535 c -0.54581,0.10194 -1.18634,0.19228 -1.42338,0.20077 -0.26149,0.009 -1.63453,-1.69544 -3.49113,-4.33467 z m -0.63348,-5.57749 c 2.44474,-1.17541 2.65688,-4.992 0.35547,-6.39513 -0.90508,-0.55181 -2.57084,-0.70056 -4.1989,-0.37495 l -0.83655,0.16731 v 3.61567 3.61566 l 1.94607,-0.12489 c 1.07034,-0.0687 2.3006,-0.29534 2.73391,-0.50367 z m 34.939332,9.75949 c -2.18141,-0.41824 -3.48007,-0.94031 -3.48007,-1.39903 0,-0.45009 0.11742,-0.44136 1.80696,0.13442 2.13871,0.72884 3.42059,0.78297 4.86415,0.20537 1.20042,-0.48032 1.77606,-1.21148 2.03329,-2.58263 0.33235,-1.77155 -0.59686,-2.87915 -4.18175,-4.98459 -3.48791,-2.04848 -4.61676,-3.67213 -4.12134,-5.9278 0.25352,-1.15425 1.56647,-2.57913 2.73053,-2.96331 2.12488,-0.70127 7.04527,-0.15553 7.03658,0.78046 -0.01,1.05315 -0.34929,1.11196 -2.4918,0.43158 -2.78007,-0.88284 -3.99102,-0.87094 -4.71252,0.0463 -0.94717,1.20414 -0.60442,2.98289 0.82516,4.28224 0.34526,0.31381 1.71193,1.23744 3.03704,2.0525 3.49586,2.15028 4.41701,3.26132 4.41701,5.32752 0,2.63589 -2.05485,4.44748 -5.24409,4.6233 -1.01745,0.0561 -2.15107,0.0442 -2.51915,-0.0263 z m 74.55391,-7.21945 -5.88936,-7.38137 -0.0712,7.25061 c -0.0691,7.02863 -0.0875,7.25061 -0.60232,7.25061 -0.51877,0 -0.5311,-0.20196 -0.5311,-8.70019 v -8.70019 l 1.00387,8.1e-4 c 0.99053,8e-4 1.06967,0.0842 5.95628,6.28015 2.72383,3.4537 5.04276,6.28428 5.15319,6.29019 0.11042,0.006 0.20077,-2.82016 0.20077,-6.28015 0,-6.11244 0.0152,-6.29091 0.5354,-6.29091 0.52458,0 0.53539,0.17847 0.53539,8.83404 0,4.85872 -0.0903,8.83265 -0.20077,8.83095 -0.11043,-0.002 -2.85098,-3.3247 -6.09013,-7.38446 z m -95.96975,-1.58034 v -8.70019 h 5.22011 c 5.06853,0 5.22011,0.0158 5.22011,0.5438 0,0.78558 -0.54193,0.88746 -2.73584,0.51434 -2.03907,-0.34679 -3.3231,-0.37665 -4.55893,-0.10601 l -0.73617,0.16121 v 3.32495 3.32496 h 2.94468 c 2.43902,0 2.94467,0.069 2.94467,0.40154 0,0.3326 -0.50565,0.40155 -2.94467,0.40155 h -2.94468 v 4.01864 4.01863 l 1.00387,-0.13754 c 1.53484,-0.21029 6.13953,-0.67188 6.70246,-0.67188 0.40282,0 0.47675,0.15555 0.38171,0.80309 l -0.11787,0.8031 h -5.18973 -5.18972 z m 36.94233,0 v -8.70019 h 1.20464 1.20464 v 8.70019 8.70019 h -1.20464 -1.20464 z m 10.97562,-0.024 v -8.72421 l 4.08239,0.0909 c 3.97192,0.0885 4.13267,0.11475 5.93995,0.97058 3.58544,1.69785 5.0917,4.25716 4.91783,8.35595 -0.1103,2.60026 -0.60631,3.86961 -2.09308,5.35638 -1.94449,1.94449 -4.61456,2.65939 -9.96934,2.66926 l -2.87775,0.005 v -8.72421 z m 8.30164,7.20477 c 1.33278,-0.59097 2.74481,-1.87423 3.34995,-3.04443 0.99239,-1.91908 0.96803,-6.13297 -0.0468,-8.09545 -0.68734,-1.32917 -2.33009,-2.93302 -3.61556,-3.52994 -1.08235,-0.5026 -1.49615,-0.55208 -3.14446,-0.37596 -1.04395,0.11155 -2.01901,0.27754 -2.16679,0.36887 -0.16939,0.10468 -0.26869,2.9231 -0.26869,7.62617 0,6.87381 0.0368,7.47097 0.46847,7.59818 1.0193,0.3004 4.24636,-0.0253 5.42389,-0.54746 z m 14.18499,-7.18076 v -8.70019 h 5.22012 c 5.06853,0 5.22011,0.0158 5.22011,0.5438 0,0.78558 -0.54193,0.88746 -2.73584,0.51434 -2.03907,-0.34679 -3.3231,-0.37665 -4.55893,-0.10601 l -0.73617,0.16121 v 3.32495 3.32496 h 2.94468 c 2.43902,0 2.94467,0.069 2.94467,0.40154 0,0.3326 -0.50565,0.40155 -2.94467,0.40155 h -2.94468 v 4.01864 4.01863 l 1.00386,-0.13754 c 1.53485,-0.21029 6.13954,-0.67188 6.70247,-0.67188 0.40282,0 0.47675,0.15555 0.38171,0.80309 l -0.11787,0.8031 h -5.18973 -5.18973 z m 43.90249,0.5405 v -8.15969 l -0.70889,-0.17792 c -0.64598,-0.16213 -3.50717,0.22101 -4.50242,0.60292 -0.31441,0.12066 -0.41035,-0.037 -0.41035,-0.67426 v -0.83174 h 6.69245 6.69245 v 0.82114 c 0,0.65681 -0.0937,0.79316 -0.46847,0.68135 -1.64423,-0.49061 -3.04223,-0.72851 -3.83622,-0.65281 l -0.91542,0.0873 -0.0708,8.23171 -0.0708,8.23172 h -1.20077 -1.20077 z m 14.45569,-0.5405 v -8.70019 h 1.07079 1.0708 v 8.70019 8.70019 h -1.0708 -1.07079 z m 8.83404,8.52135 c 0,-0.19617 7.48062,-17.47334 7.67869,-17.73462 0.17916,-0.23633 0.5043,0.45229 4.2438,8.98772 l 3.85186,8.79189 -1.23208,0.0831 c -0.67763,0.0457 -1.32008,-0.0145 -1.42766,-0.13385 -0.10757,-0.11933 -0.59633,-1.2108 -1.08611,-2.42548 l -0.8905,-2.20851 h -4.05048 -4.05047 l -0.95682,2.34236 c -0.7296,1.7861 -1.09022,2.36267 -1.51853,2.4279 -0.30894,0.047 -0.5617,-0.0117 -0.5617,-0.13053 z m 10.70792,-5.53813 c 0,-0.15298 -3.21257,-7.98352 -3.44773,-8.40372 -0.14385,-0.25705 -0.79582,1.01749 -1.99685,3.90369 -0.9808,2.35695 -1.78327,4.35511 -1.78327,4.44035 0,0.0853 1.62627,0.15499 3.61393,0.15499 1.98765,0 3.61392,-0.0429 3.61392,-0.0953 z m 11.77871,-2.98322 v -8.70019 h 1.20465 1.20464 v 8.02585 8.02584 l 0.73617,0.1613 c 0.40489,0.0887 0.90019,0.21286 1.10064,0.27586 0.20048,0.063 1.44918,-0.0736 2.7749,-0.30367 1.32575,-0.23002 2.47118,-0.35747 2.54544,-0.28322 0.0743,0.0743 0.058,0.44177 -0.0361,0.81671 l -0.17108,0.68171 h -4.67963 -4.67961 z M 88.843038,121.97346 c -1.935,-0.46635 -2.5843,-0.7541 -3.94432,-1.74798 -4.29206,-3.1366 -3.94674,-10.82139 0.6277,-13.96869 2.57316,-1.77038 6.35638,-2.39786 9.66773,-1.60348 1.24954,0.29976 1.30923,0.35468 1.19933,1.1035 -0.0636,0.43343 -0.13211,0.78721 -0.15221,0.78619 -0.0201,-0.001 -0.92144,-0.30219 -2.00299,-0.66925 -2.20428,-0.74809 -3.91396,-0.84608 -5.22254,-0.29932 -1.34288,0.56109 -2.8051,1.97721 -3.60305,3.48946 -0.65401,1.23948 -0.71897,1.62865 -0.71897,4.30727 0,2.76378 0.0488,3.03276 0.79409,4.37835 1.00837,1.82052 2.29762,2.8881 4.13825,3.42671 1.84679,0.54041 4.6569,0.37035 6.15877,-0.37272 l 1.08915,-0.53887 v 0.60388 c 0,0.49635 -0.22642,0.66174 -1.27157,0.92879 -1.92838,0.49275 -5.10257,0.57547 -6.75937,0.17616 z m 22.750042,-4.05343 -3.07424,-4.41901 -1.07079,0.0689 -1.07079,0.0689 -0.0737,4.21624 -0.0737,4.21625 h -1.19784 -1.19784 v -8.70019 -8.70018 l 3.94854,0.006 c 4.33519,0.006 5.38051,0.27099 6.8198,1.72585 1.23716,1.25054 1.29986,3.37708 0.14296,4.84785 -0.58162,0.73941 -2.92569,1.97954 -3.75038,1.98415 -0.25766,10e-4 -0.46847,0.0637 -0.46847,0.13842 0,0.0747 1.56951,2.03223 3.48781,4.35009 l 3.48781,4.21429 -1.01161,0.18535 c -0.55638,0.10194 -1.19422,0.19228 -1.41744,0.20077 -0.23093,0.009 -1.73075,-1.88905 -3.48007,-4.40359 z m -1.2893,-5.22611 c 0.55079,-0.15298 1.3441,-0.68529 1.80696,-1.21246 1.36667,-1.55655 1.05168,-4.08781 -0.67797,-5.44836 -0.78587,-0.61816 -3.23433,-0.78019 -4.50269,-0.29796 l -0.68667,0.26107 v 3.4867 3.4867 l 1.53926,-0.002 c 0.8466,-8e-4 1.9811,-0.12421 2.52111,-0.2742 z m 34.28983,9.23961 c -2.00576,-0.43575 -2.21096,-0.54777 -2.21096,-1.20696 0,-0.4962 0.0346,-0.49515 1.27156,0.0388 2.6895,1.16093 5.33361,0.91864 6.61677,-0.60631 0.53075,-0.63076 0.67801,-1.10101 0.67801,-2.16516 0,-1.22705 -0.0991,-1.45311 -1.01804,-2.32182 -0.55991,-0.52933 -1.90675,-1.44427 -2.99296,-2.03321 -2.06313,-1.11861 -3.64432,-2.51042 -4.04944,-3.56443 -0.65064,-1.6928 0.0282,-3.72954 1.63568,-4.90783 0.81865,-0.60005 3.17115,-1.07017 4.3507,-0.86944 3.73376,0.6354 3.73927,0.63758 3.54769,1.4009 -0.0983,0.39152 -0.20934,0.74253 -0.24683,0.78002 -0.0375,0.0375 -0.7806,-0.17754 -1.65135,-0.47784 -0.87076,-0.3003 -2.25531,-0.61679 -3.07678,-0.7033 -1.39886,-0.14732 -1.53045,-0.11044 -2.07466,0.58142 -0.36659,0.46604 -0.58107,1.11719 -0.58107,1.76408 0,1.39932 1.08726,2.58292 3.98402,4.33702 2.89206,1.75125 4.48874,3.29766 4.7294,4.58048 0.27968,1.4908 -0.088,2.76753 -1.12892,3.91966 -1.58039,1.74931 -4.1842,2.23573 -7.78282,1.45393 z m 89.62623,-4.01993 c -3.05122,-4.39339 -3.0653,-4.40859 -4.0824,-4.40859 h -1.02062 v 4.28317 4.28317 h -1.20464 -1.20464 v -8.70019 -8.70018 l 3.81469,0.003 c 3.47727,0.002 3.93858,0.0603 5.21517,0.65464 1.89057,0.8802 2.54688,1.93689 2.40353,3.86978 -0.0956,1.28935 -0.22818,1.56115 -1.20655,2.47376 -0.65754,0.61335 -1.58833,1.15609 -2.31676,1.35092 -0.6697,0.17912 -1.21763,0.41392 -1.21763,0.52179 0,0.10787 1.52456,2.04022 3.38791,4.29413 l 3.38792,4.09801 -1.04556,0.18579 c -0.57506,0.10218 -1.22625,0.18893 -1.4471,0.19278 -0.22085,0.004 -1.77935,-1.97687 -3.46332,-4.40159 z m -0.35591,-5.5746 c 2.10515,-1.0927 2.3469,-4.38063 0.44488,-6.05062 -0.76011,-0.66738 -1.16124,-0.81431 -2.22317,-0.81431 -0.71264,0 -1.67216,0.0753 -2.13226,0.16731 l -0.83656,0.16731 v 3.61567 3.61566 l 1.94081,-0.12588 c 1.06745,-0.0692 2.33028,-0.32805 2.8063,-0.57514 z m 52.27258,9.6524 c -3.32104,-0.75995 -5.69906,-2.68613 -6.57609,-5.32663 -0.60047,-1.80787 -0.42898,-5.21416 0.35039,-6.9601 1.92663,-4.31589 7.86942,-6.50043 13.25277,-4.87166 0.47061,0.14239 0.66502,1.29108 0.26079,1.54092 -0.11423,0.0706 -0.92736,-0.11471 -1.80696,-0.41179 -2.60005,-0.87815 -4.13267,-0.93188 -5.60512,-0.19651 -3.16986,1.5831 -4.72918,5.0504 -4.14054,9.2069 0.13832,0.97662 0.44495,2.16025 0.68143,2.63028 1.1787,2.3429 3.85764,3.93668 6.60497,3.92949 2.70589,-0.007 2.60001,0.14119 2.60001,-3.64149 v -3.31501 h 1.20465 1.20464 v 3.4483 3.44829 l -1.27157,0.32491 c -1.89335,0.48379 -5.09199,0.57564 -6.75937,0.1941 z m -157.40646,-3.16334 v -3.24328 l -2.50681,-4.58688 c -1.37875,-2.52279 -2.70695,-4.9784 -2.95156,-5.45691 l -0.44474,-0.87001 h 1.31832 1.31833 l 2.42066,4.95241 c 1.33137,2.72383 2.46709,4.95241 2.52382,4.95241 0.0567,0 1.10859,-2.22858 2.33745,-4.95241 1.71534,-3.80215 2.34787,-4.95241 2.72333,-4.95241 0.26897,0 0.48676,0.0903 0.48396,0.20077 -0.003,0.11042 -1.08697,2.48025 -2.40928,5.26629 l -2.4042,5.06551 v 3.4339 3.4339 h -1.20464 -1.20464 z m 36.07618,-4.98843 -0.0708,-8.23171 -0.93809,-0.0792 c -0.51595,-0.0435 -1.67877,0.0936 -2.58405,0.30482 l -1.64596,0.38397 -0.11349,-0.77328 -0.1135,-0.77328 h 6.77994 c 7.11907,0 7.07427,-0.008 6.63302,1.14216 -0.12697,0.33086 -0.40987,0.32791 -2.0833,-0.0218 -1.06501,-0.22253 -2.26377,-0.32244 -2.66391,-0.22201 l -0.72753,0.18261 v 8.15969 8.15969 h -1.20078 -1.20077 z m 14.55168,3.34623 c 1.17693,-2.68702 2.93751,-6.72257 3.9124,-8.96789 0.9749,-2.24531 1.84971,-4.08239 1.94403,-4.08239 0.0943,0 0.96913,1.83708 1.94402,4.08239 0.97489,2.24532 2.73815,6.28699 3.91835,8.98149 l 2.14582,4.89908 -1.38253,-0.0805 -1.38253,-0.0805 -0.96097,-2.27543 -0.96095,-2.27544 -4.0435,-0.0738 -4.04349,-0.0738 -1.00146,2.41612 c -0.84944,2.04934 -1.09464,2.41611 -1.61527,2.41611 -0.58418,0 -0.51056,-0.2357 1.52608,-4.88549 z m 8.5349,-1.07079 c 0.003,-0.61446 -3.32214,-8.49859 -3.49887,-8.29673 -0.23611,0.26968 -3.46277,8.08847 -3.46277,8.39092 0,0.13224 1.56603,0.24043 3.48007,0.24043 2.6048,0 3.48045,-0.0842 3.48157,-0.33462 z m 11.77722,-2.74391 v -8.70018 h 1.20464 1.20464 v 8.00876 8.00875 l 1.33436,0.28617 c 1.03347,0.22164 1.80309,0.19647 3.41315,-0.11162 2.7289,-0.52219 2.67483,-0.53082 2.53745,0.40521 l -0.11788,0.8031 h -4.78818 -4.78818 z m 47.65026,0 v -8.70018 h 1.07079 1.07079 v 8.70018 8.70019 h -1.07079 -1.07079 z m 10.70792,0 v -8.70018 h 3.56534 c 3.84299,0 5.59098,0.34546 7.55243,1.49262 1.5342,0.8973 2.39812,1.88856 3.22884,3.70484 0.98167,2.14632 1.03342,5.23068 0.12271,7.31518 -1.53851,3.52153 -4.73951,4.8698 -11.59157,4.88243 l -2.87775,0.005 z m 8.86461,6.91708 c 2.59506,-1.44906 3.97903,-4.47241 3.61994,-7.90792 -0.29891,-2.85992 -2.01868,-5.34562 -4.49534,-6.49738 -1.0829,-0.5036 -1.49528,-0.55302 -3.14444,-0.37681 -1.04397,0.11155 -2.019,0.27754 -2.1668,0.36887 -0.1694,0.10469 -0.26869,2.92311 -0.26869,7.62618 0,8.57594 -0.30906,7.77983 2.97525,7.664 1.68679,-0.0595 2.28697,-0.21072 3.48008,-0.87694 z m 35.57327,-6.9113 v -8.70596 h 5.08626 5.08626 v 0.66924 c 0,0.7712 -0.26681,0.8133 -2.43966,0.38504 -1.81066,-0.35688 -3.94279,-0.3558 -4.88514,0.002 l -0.72319,0.27495 0.0755,3.14884 0.0754,3.14883 3.0116,0.0757 c 2.40222,0.0604 3.01161,0.15339 3.01161,0.4597 0,0.30631 -0.60939,0.39933 -3.01161,0.45971 l -3.0116,0.0757 -0.0748,3.72653 c -0.0411,2.0496 0.019,3.81627 0.13385,3.92595 0.11474,0.10968 1.77465,0.0316 3.68869,-0.17359 4.70274,-0.50404 4.46847,-0.52288 4.36787,0.35127 l -0.0847,0.73617 -5.15319,0.0727 -5.15318,0.0727 v -8.70597 z"
    id="path706"
  />
</svg>
